<svg xmlns="http://www.w3.org/2000/svg" id="Layer_2" data-name="Layer 2" viewBox="0 0 1122.85 393.83"><g id="Layer_1-2" data-name="Layer 1"><g style="opacity: .16;"><g><path d="m589.19,42.99c.61-12.22-61.63-42.33-118.22-25.44-19.04,5.69-56.61,22.37-55.92,45.27,1.02,33.51,84.86,115.36,109.93,95.44,12.05-9.56,36.75-38.44,52.65-56.61,18.6-21.39,11.1-50.73,11.55-58.66Z" style="fill: #fff;"></path><path d="m279.39,90.19c-7.42-19.75-127.24-22.56-205.78,44.76C47.2,157.6-1.13,210.94,15.72,246.61c24.64,52.15,180.32,48.3,206.54-1.19,12.59-23.75-12.07-43.89.76-84.02,14.97-47.09,61.2-58.36,56.37-71.21Z" style="fill: #fff;"></path><path d="m208.46,60.47c-2.64-.26-8.28-.82-12.74-5.28-4.67-4.67-5.19-10.75-5.28-12.74h0c0-9.95,8.07-18.02,18.02-18.02h0c11.42-1.3,37.75-3.46,41.06,5.28,3.7,9.82-21.93,32.64-41.06,30.76Z" style="fill: #fff;"></path><path d="m400.72,289.81l-29.51-.02c-1.95,0-3.61,1.43-3.92,3.37l-7.77,50.88c-.32,2.16,1.15,4.17,3.31,4.52h.04l12.65,1.82c1.99.28,3.87-.95,4.39-2.9,4.78-18.34,12.94-35.99,24.01-51.37,1.28-1.77.89-4.24-.87-5.54-.69-.5-1.51-.76-2.36-.76Z" style="fill: #fff;"></path><polygon points="338.25 141.29 441.95 146.33 445.02 118.01 338.25 118.01 338.25 141.29" style="fill: #fff;"></polygon><rect x="311.21" y="105.7" width="18.69" height="27.23" style="fill: #fff;"></rect><polygon points="326.61 36.63 305.99 45.98 309.82 86.86 326.61 82.27 326.61 36.63" style="fill: #fff;"></polygon><rect x="526.48" y="237.91" width="18.69" height="27.23" style="fill: #fff;"></rect><polygon points="541.88 168.82 521.27 178.17 525.08 219.07 541.88 214.49 541.88 168.82" style="fill: #fff;"></polygon><polygon points="339.13 42.99 339.13 86.93 382.63 75.79 386.01 23.03 339.13 42.99" style="fill: #fff;"></polygon><rect x="469.48" y="176.41" width="26.24" height="51.7" style="fill: #fff;"></rect><rect x="461" y="249.33" width="54.08" height="11.66" style="fill: #fff;"></rect><polygon points="404.7 225.73 404.7 203.45 394.99 203.45 379.06 264.45 425.46 264.45 425.46 225.73 404.7 225.73" style="fill: #fff;"></polygon><polygon points="404.35 166.62 398.16 188.81 437.14 188.81 437.14 169.93 404.35 166.62" style="fill: #fff;"></polygon><rect x="417.65" y="197.51" width="19.49" height="19.49" style="fill: #fff;"></rect><polygon points="295.29 241.22 280.58 229.48 265.76 261.71 280.21 275.81 295.29 241.22" style="fill: #fff;"></polygon><polygon points="324.03 264.24 300.43 245.35 285.1 280.57 307.42 302.4 324.03 264.24" style="fill: #fff;"></polygon><polygon points="329.18 268.35 312.29 307.15 335.46 329.8 344.02 280.2 329.18 268.35" style="fill: #fff;"></polygon><rect x="313.2" y="161.81" width="58.99" height="17.89" style="fill: #fff;"></rect><rect x="275.06" y="343.32" width="58.99" height="17.89" style="fill: #fff;"></rect><polygon points="337.45 197.51 332.49 197.51 332.49 224.8 359.06 224.8 367.28 197.51 337.45 197.51" style="fill: #fff;"></polygon><polygon points="283.99 188.61 279.04 188.61 279.04 215.94 305.6 215.94 313.82 188.61 283.99 188.61" style="fill: #fff;"></polygon><path d="m235.74,308.13l-9.71,31.71c-.41,1.34.35,2.79,1.69,3.2.37.11.74.13,1.12.09l25.35-3.7c1.41-.19,2.36-1.51,2.16-2.9-.04-.3-.15-.61-.3-.89l-15.62-28.01c-.69-1.23-2.25-1.67-3.48-.97-.58.32-1.02.84-1.21,1.47Z" style="fill: #fff;"></path><polygon points="455.44 302.66 457.35 293.42 440.84 293.42 435.98 302.66 455.44 302.66" style="fill: #fff;"></polygon><polygon points="451.53 321.56 454.25 308.41 432.95 308.41 426.03 321.56 451.53 321.56" style="fill: #fff;"></polygon><polygon points="423 327.31 411.84 348.49 445.23 352 450.34 327.31 423 327.31" style="fill: #fff;"></polygon><rect x="470.93" y="308.41" width="31.75" height="33.94" style="fill: #fff;"></rect><rect x="463.95" y="352.26" width="41.08" height="10.43" style="fill: #fff;"></rect><rect x="95.26" y="334.3" width="53.15" height="21.87" style="fill: #fff;"></rect><polygon points="193.94 282.21 166.67 322.34 197.01 337.03 215.49 290.82 193.94 282.21" style="fill: #fff;"></polygon></g><path d="m105.04,258.17c-1.96,0-3.91-.05-5.81-.14-9.57-.48-20.78-2.26-29.26-4.65-7.33-2.07-16.11-5.54-16.31-10.36-.08-1.85,1.15-3.92,3.57-6,5.05-4.34,14.6-8.31,25.56-10.64,12.64-2.68,25.98-2.91,37.54-.63h0c14.06,2.8,33.26,10.62,32.75,18.03-.58,8.35-25.58,14.38-48.04,14.38Zm-1.44-33.54c-6.85,0-13.88.73-20.72,2.18-10.89,2.31-20.37,6.25-25.37,10.54-2.31,1.99-3.49,3.94-3.42,5.65.2,4.8,10.11,8.3,15.99,9.96,8.45,2.38,19.62,4.16,29.16,4.63,11.62.58,24.9-.65,35.51-3.28,11.09-2.75,17.61-6.6,17.89-10.56.22-3.16-3.61-6.84-10.77-10.38-6.13-3.03-14.22-5.72-21.64-7.2h0c-5.26-1.04-10.89-1.55-16.65-1.55Z" style="fill: #fff;"></path><path d="m407.46,371.98c-1.08,0-2.01-.8-2.14-1.9-2.11-17.04-2.15-31.38-.1-42.61,1.64-9.01,4.67-16.29,9.01-21.64,6.47-7.9,12.48-16.19,17.85-24.65,2.51-3.95,4.85-8.15,6.96-12.46,4.29-8.75,9.38-22.44,10.77-50.9.25-5.08.39-10.28.53-15.3.35-12.52.71-25.47,2.69-38.08,3.27-20.88,10.72-37.35,22.14-48.94,6.5-6.6,14.89-11.66,23.63-14.26,9.43-2.8,18.85-2.71,27.26.26,1.13.4,1.72,1.63,1.32,2.76s-1.63,1.72-2.76,1.32c-7.54-2.67-16.04-2.74-24.58-.2-8.05,2.39-15.79,7.06-21.78,13.15-10.77,10.94-17.82,26.61-20.95,46.58-1.93,12.34-2.29,25.15-2.64,37.53-.14,5.04-.29,10.26-.54,15.39-.51,10.54-1.44,19.07-2.93,26.84-1.86,9.74-4.56,18.16-8.28,25.74-2.17,4.46-4.59,8.79-7.19,12.88-5.47,8.61-11.57,17.04-18.15,25.07-8.93,11.01-11.61,31.53-7.96,60.99.15,1.19-.69,2.27-1.88,2.41-.09.01-.18.02-.27.02Z" style="fill: #fff;"></path><path d="m91.26,323.53h0c-15.31,0-29.61-2.75-42.49-8.16-21.41-8.99-38.38-25.52-46.58-45.33l-2.19-5.25L46.91,81.67l3.53-3.37c9.3-8.88,22.17-13.98,35.3-13.98.04,0,.07,0,.11,0,10.34,0,20.22,3.17,28.58,9.18,9.56,6.77,16.56,16.49,19.7,27.35,1.83,6.27,2.27,12.39,2.62,17.31l.03.36c.2,2.65.4,5.16.76,7.34,2.36,14.16,13.6,26.72,25.49,40.03l.13.15c13.48,15.07,28.75,32.14,33.51,54.93,5.1,24.46-3.6,51.65-22.71,70.95-20.08,20.29-45.76,27.66-63.77,30.26-6.27.88-12.63,1.33-18.92,1.35ZM2.5,264.6l1.88,4.52c7.96,19.24,24.48,35.3,45.31,44.05,12.59,5.29,26.58,7.98,41.57,7.98,6.18-.02,12.43-.47,18.59-1.33,17.65-2.55,42.81-9.75,62.42-29.57,18.55-18.74,27.01-45.1,22.07-68.79-4.62-22.16-19.67-38.99-32.95-53.83l-.13-.15c-12.13-13.57-23.59-26.39-26.06-41.22-.38-2.29-.58-4.84-.79-7.55l-.03-.36c-.36-5.06-.77-10.8-2.53-16.82-2.99-10.35-9.67-19.61-18.8-26.08-7.95-5.72-17.36-8.74-27.2-8.74-.03,0-.07,0-.1,0-12.53,0-24.8,4.86-33.66,13.32l-3.04,2.9L2.5,264.6Z" style="fill: #fff;"></path><rect x="137.15" y="132.41" width="79.58" height="1.08" transform="translate(-42.95 158.05) rotate(-43.43)" style="fill: #fff;"></rect><path d="m190.88,206.79l-.92-.57c8.41-13.51,24.56-22.91,43.2-25.15,14.51-1.74,30.58.41,50.59,6.77l-.33,1.03c-19.85-6.31-35.78-8.45-50.13-6.73-18.32,2.2-34.18,11.41-42.41,24.65Z" style="fill: #fff;"></path><rect x="203.36" y="122.64" width="1.08" height="68.76" transform="translate(-52.79 175.47) rotate(-41.71)" style="fill: #fff;"></rect><path d="m240.93,124.76l-1.08-.04c.27-6.94,4.38-13.54,10.47-16.81,3.34-1.8,7.04-2.58,10.54-3.21,10.09-1.82,20.39-2.69,30.6-2.58v1.08c-10.17-.11-20.39.76-30.41,2.57-3.42.62-7.02,1.37-10.22,3.1-5.76,3.09-9.65,9.33-9.91,15.9Z" style="fill: #fff;"></path><path d="m153.67,49.86l-.36-1.02c8.87-3.13,19.91-7.02,26.06-15.66,2.98-4.19,4.83-9.55,5.51-15.92.59-5.58.24-11.31-.09-16.86l-.02-.33,1.08-.07.02.33c.34,5.59.68,11.37.09,17.04-.69,6.56-2.61,12.09-5.7,16.44-6.35,8.92-17.57,12.87-26.59,16.05Z" style="fill: #fff;"></path><rect x="291.82" y="91.91" width="106.76" height="1.08" transform="translate(-11.23 66.65) rotate(-10.85)" style="fill: #fff;"></rect><path d="m521.27,102.8c-.07,0-.14,0-.21-.02l-.58-.1c-11.26-1.98-22.91-4.02-33.91-7.86-12.71-4.43-22.88-10.69-30.22-18.59-3.96-4.26-7.25-9.15-10.43-13.89-3.99-5.93-8.11-12.06-13.49-16.79-8.23-7.13-18.74-10.74-29.59-10.18-.65.04-1.22-.47-1.25-1.13-.03-.66.47-1.22,1.13-1.25,11.46-.6,22.57,3.22,31.28,10.76,5.62,4.94,9.83,11.2,13.9,17.26,3.13,4.66,6.37,9.47,10.2,13.59,7.08,7.62,16.93,13.66,29.26,17.97,10.82,3.78,22.37,5.8,33.54,7.77l.58.1c.65.11,1.08.73.97,1.38-.1.58-.6.98-1.17.98Z" style="fill: #fff;"></path><path d="m189.43,362.36c-9.77-6.32-18.8-13.78-26.84-22.17-8.04-8.39-15.11-17.73-21.01-27.76l.93-.55c5.86,9.96,12.87,19.23,20.86,27.56,7.99,8.33,16.95,15.74,26.65,22.01l-.59.91Z" style="fill: #fff;"></path><rect x="331.94" y="138.86" width="1.08" height="99.85" transform="translate(137.39 517.61) rotate(-88.91)" style="fill: #fff;"></rect><rect x="302.42" y="232.46" width="66.8" height="1.08" style="fill: #fff;"></rect><rect x="284.94" y="244.72" width="1.08" height="118.88" transform="translate(-122.07 215.21) rotate(-34.5)" style="fill: #fff;"></rect><g><path d="m65.99,383.92c-.7,0-1.28-.56-1.3-1.26-.02-.72.55-1.31,1.26-1.33,40.61-1.1,75.38-8.69,103.33-22.57,17.51-8.69,32.15-19.8,43.5-33,3.9-4.53,17.6-21.27,30.44-46.54,13.44-26.45,21.46-53.12,23.83-79.26.72-7.98,2.05-22.82,6.45-39.36,5.21-19.6,13.32-36.24,24.1-49.45,2.32-2.84,5.14-5.38,8.64-7.78,14.82-10.12,30.65-8.97,44.61-7.95,13.53.99,25.22,1.84,33.92-6.87,4.79-4.81,7.53-11.55,8.35-20.63,1.12-12.32-1.31-29.26-7.23-50.36-.19-.69.21-1.41.9-1.6.69-.19,1.41.21,1.6.9,6,21.4,8.46,38.66,7.32,51.29-.88,9.7-3.86,16.97-9.1,22.22-9.54,9.55-22.37,8.62-35.95,7.62-14.2-1.04-28.88-2.11-42.95,7.5-3.29,2.26-5.94,4.64-8.1,7.28-10.55,12.92-18.49,29.23-23.6,48.47-4.34,16.32-5.66,31.03-6.37,38.93-2.4,26.47-10.51,53.45-24.1,80.2-12.97,25.53-26.84,42.47-30.79,47.05-11.58,13.47-26.49,24.78-44.32,33.63-28.29,14.05-63.42,21.73-104.42,22.84-.01,0-.02,0-.04,0Z" style="fill: #fff;"></path><path d="m63.4,97.78c-.21,0-.42-.05-.61-.15-.63-.34-.87-1.12-.53-1.76,7.91-14.82,17.05-26.73,27.18-35.38,6.32-5.4,12.91-9.43,19.58-11.99,13.33-5.11,28.38-5.35,44.71-.7,11.96,3.4,21.16,8.53,24.56,10.58,3.5,2.1,6.23,4.05,8.65,5.77,5.22,3.72,8.67,6.18,14.99,6.88,8,.9,13.84-1.95,27.95-8.83,3.42-1.67,7.29-3.56,11.8-5.69,11.7-5.53,17.77-8.26,24.05-10.82,13.54-5.56,27.72-9.75,42.13-12.47.7-.13,1.38.33,1.52,1.04.13.7-.33,1.38-1.04,1.52-14.24,2.68-28.24,6.83-41.63,12.32-6.24,2.54-12.27,5.26-23.93,10.77-4.5,2.13-8.36,4.02-11.77,5.68-14.59,7.12-20.62,10.07-29.38,9.08-6.98-.78-10.85-3.53-16.2-7.34-2.38-1.69-5.07-3.61-8.48-5.66-3.31-2-12.27-7-23.93-10.31-15.78-4.49-30.28-4.27-43.07.63-6.4,2.45-12.73,6.33-18.82,11.53-9.88,8.44-18.82,20.09-26.57,34.63-.23.44-.68.69-1.15.69Z" style="fill: #fff;"></path></g></g><g style="opacity: .16;"><g><path d="m533.66,350.84c-.61,12.22,61.63,42.33,118.22,25.44,19.04-5.69,56.61-22.37,55.92-45.27-1.02-33.51-84.86-115.36-109.93-95.44-12.05,9.56-36.75,38.44-52.65,56.61-18.6,21.39-11.1,50.73-11.55,58.66Z" style="fill: #fff;"></path><path d="m843.47,303.64c7.42,19.75,127.24,22.56,205.78-44.76,26.41-22.65,74.74-75.99,57.89-111.66-24.64-52.15-180.32-48.3-206.54,1.19-12.59,23.75,12.07,43.89-.76,84.02-14.97,47.09-61.2,58.36-56.37,71.21Z" style="fill: #fff;"></path><path d="m914.4,333.36c2.64.26,8.28.82,12.74,5.28,4.67,4.67,5.19,10.75,5.28,12.74h0c0,9.95-8.07,18.02-18.02,18.02h0c-11.42,1.3-37.75,3.46-41.06-5.28-3.7-9.82,21.93-32.64,41.06-30.76Z" style="fill: #fff;"></path><path d="m722.14,104.03l29.51.02c1.95,0,3.61-1.43,3.92-3.37l7.77-50.88c.32-2.16-1.15-4.17-3.31-4.52h-.04l-12.65-1.82c-1.99-.28-3.87.95-4.39,2.9-4.78,18.34-12.94,35.99-24.01,51.37-1.28,1.77-.89,4.24.87,5.54.69.5,1.51.76,2.36.76Z" style="fill: #fff;"></path><polygon points="784.61 252.55 680.91 247.51 677.83 275.82 784.61 275.82 784.61 252.55" style="fill: #fff;"></polygon><rect x="792.96" y="260.9" width="18.69" height="27.23" style="fill: #fff;"></rect><polygon points="796.24 357.2 816.86 347.85 813.03 306.97 796.24 311.56 796.24 357.2" style="fill: #fff;"></polygon><rect x="577.68" y="128.69" width="18.69" height="27.23" style="fill: #fff;"></rect><polygon points="580.97 225.01 601.58 215.67 597.78 174.76 580.97 179.35 580.97 225.01" style="fill: #fff;"></polygon><polygon points="783.72 350.84 783.72 306.91 740.22 318.05 736.84 370.81 783.72 350.84" style="fill: #fff;"></polygon><rect x="627.13" y="165.72" width="26.24" height="51.7" style="fill: #fff;"></rect><rect x="607.77" y="132.84" width="54.08" height="11.66" style="fill: #fff;"></rect><polygon points="718.16 168.1 718.16 190.38 727.87 190.38 743.79 129.38 697.39 129.38 697.39 168.1 718.16 168.1" style="fill: #fff;"></polygon><polygon points="718.5 227.22 724.69 205.02 685.71 205.02 685.71 223.91 718.5 227.22" style="fill: #fff;"></polygon><rect x="685.71" y="176.84" width="19.49" height="19.49" style="fill: #fff;"></rect><polygon points="827.57 152.61 842.28 164.36 857.09 132.12 842.64 118.02 827.57 152.61" style="fill: #fff;"></polygon><polygon points="798.82 129.59 822.42 148.48 837.76 113.26 815.43 91.44 798.82 129.59" style="fill: #fff;"></polygon><polygon points="793.67 125.48 810.56 86.68 787.4 64.03 778.83 113.63 793.67 125.48" style="fill: #fff;"></polygon><rect x="750.67" y="214.13" width="58.99" height="17.89" style="fill: #fff;"></rect><rect x="788.8" y="32.62" width="58.99" height="17.89" style="fill: #fff;"></rect><polygon points="785.41 196.33 790.36 196.33 790.36 169.03 763.8 169.03 755.58 196.33 785.41 196.33" style="fill: #fff;"></polygon><polygon points="838.86 205.22 843.81 205.22 843.81 177.9 817.25 177.9 809.03 205.22 838.86 205.22" style="fill: #fff;"></polygon><path d="m887.12,85.7l9.71-31.71c.41-1.34-.35-2.79-1.69-3.2-.37-.11-.74-.13-1.12-.09l-25.35,3.7c-1.41.19-2.36,1.51-2.16,2.9.04.3.15.61.3.89l15.62,28.01c.69,1.23,2.25,1.67,3.48.97.58-.32,1.02-.84,1.21-1.47Z" style="fill: #fff;"></path><polygon points="667.41 91.18 665.5 100.41 682.01 100.41 686.88 91.18 667.41 91.18" style="fill: #fff;"></polygon><polygon points="671.32 72.27 668.6 85.42 689.9 85.42 696.83 72.27 671.32 72.27" style="fill: #fff;"></polygon><polygon points="699.86 66.52 711.02 45.34 677.62 41.84 672.51 66.52 699.86 66.52" style="fill: #fff;"></polygon><rect x="620.17" y="51.48" width="31.75" height="33.94" style="fill: #fff;"></rect><rect x="617.83" y="31.15" width="41.08" height="10.43" style="fill: #fff;"></rect><rect x="974.44" y="37.66" width="53.15" height="21.87" style="fill: #fff;"></rect><polygon points="928.91 111.62 956.19 71.49 925.84 56.8 907.36 103.01 928.91 111.62" style="fill: #fff;"></polygon></g><path d="m1017.81,135.66c1.96,0,3.91.05,5.81.14,9.57.48,20.78,2.26,29.26,4.65,7.33,2.07,16.11,5.54,16.31,10.36.08,1.85-1.15,3.92-3.57,6-5.05,4.34-14.6,8.31-25.56,10.64-12.64,2.68-25.98,2.91-37.54.63h0c-14.06-2.8-33.26-10.62-32.75-18.03.58-8.35,25.58-14.38,48.04-14.38Zm1.44,33.54c6.85,0,13.88-.73,20.72-2.18,10.89-2.31,20.37-6.25,25.37-10.54,2.31-1.99,3.49-3.94,3.42-5.65-.2-4.8-10.11-8.3-15.99-9.96-8.45-2.38-19.62-4.16-29.16-4.63-11.62-.58-24.9.65-35.51,3.28-11.09,2.75-17.61,6.6-17.89,10.56-.22,3.16,3.61,6.84,10.77,10.38,6.13,3.03,14.22,5.72,21.64,7.2h0c5.26,1.04,10.89,1.55,16.65,1.55Z" style="fill: #fff;"></path><path d="m715.39,21.85c1.08,0,2.01.8,2.14,1.9,2.11,17.04,2.15,31.38.1,42.61-1.64,9.01-4.67,16.29-9.01,21.64-6.47,7.9-12.48,16.19-17.85,24.65-2.51,3.95-4.85,8.15-6.96,12.46-4.29,8.75-9.38,22.44-10.77,50.9-.25,5.08-.39,10.28-.53,15.3-.35,12.52-.71,25.47-2.69,38.08-3.27,20.88-10.72,37.35-22.14,48.94-6.5,6.6-14.89,11.66-23.63,14.26-9.43,2.8-18.85,2.71-27.26-.26-1.13-.4-1.72-1.63-1.32-2.76s1.63-1.72,2.76-1.32c7.54,2.67,16.04,2.74,24.58.2,8.05-2.39,15.79-7.06,21.78-13.15,10.77-10.94,17.82-26.61,20.95-46.58,1.93-12.34,2.29-25.15,2.64-37.53.14-5.04.29-10.26.54-15.39.51-10.54,1.44-19.07,2.93-26.84,1.86-9.74,4.56-18.16,8.28-25.74,2.17-4.46,4.59-8.79,7.19-12.88,5.47-8.61,11.57-17.04,18.15-25.07,8.93-11.01,11.61-31.53,7.96-60.99-.15-1.19.69-2.27,1.88-2.41.09-.01.18-.02.27-.02Z" style="fill: #fff;"></path><path d="m1031.59,70.3h0c15.31,0,29.61,2.75,42.49,8.16,21.41,8.99,38.38,25.52,46.58,45.33l2.19,5.25-46.91,183.11-3.53,3.37c-9.3,8.88-22.17,13.98-35.3,13.98-.04,0-.07,0-.11,0-10.34,0-20.22-3.17-28.58-9.18-9.56-6.77-16.56-16.49-19.7-27.35-1.83-6.27-2.27-12.39-2.62-17.31l-.03-.36c-.2-2.65-.4-5.16-.76-7.34-2.36-14.16-13.6-26.72-25.49-40.03l-.13-.15c-13.48-15.07-28.75-32.14-33.51-54.93-5.1-24.46,3.6-51.65,22.71-70.95,20.08-20.29,45.76-27.66,63.77-30.26,6.27-.88,12.63-1.33,18.92-1.35Zm88.76,58.93l-1.88-4.52c-7.96-19.24-24.48-35.3-45.31-44.05-12.59-5.29-26.58-7.98-41.57-7.98-6.18.02-12.43.47-18.59,1.33-17.65,2.55-42.81,9.75-62.42,29.57-18.55,18.74-27.01,45.1-22.07,68.79,4.62,22.16,19.67,38.99,32.95,53.83l.13.15c12.13,13.57,23.59,26.39,26.06,41.22.38,2.29.58,4.84.79,7.55l.03.36c.36,5.06.77,10.8,2.53,16.82,2.99,10.35,9.67,19.61,18.8,26.08,7.95,5.72,17.36,8.74,27.2,8.74.03,0,.07,0,.1,0,12.53,0,24.8-4.86,33.66-13.32l3.04-2.9,46.54-181.68Z" style="fill: #fff;"></path><rect x="906.12" y="260.34" width="79.58" height="1.08" transform="translate(79.65 721.76) rotate(-43.43)" style="fill: #fff;"></rect><path d="m931.98,187.04l.92.57c-8.41,13.51-24.56,22.91-43.2,25.15-14.51,1.74-30.58-.41-50.59-6.77l.33-1.03c19.85,6.31,35.78,8.45,50.13,6.73,18.32-2.2,34.18-11.41,42.41-24.65Z" style="fill: #fff;"></path><rect x="918.41" y="202.43" width="1.08" height="68.76" transform="translate(75.37 671.46) rotate(-41.71)" style="fill: #fff;"></rect><path d="m881.93,269.07l1.08.04c-.27,6.94-4.38,13.54-10.47,16.81-3.34,1.8-7.04,2.58-10.54,3.21-10.09,1.82-20.39,2.69-30.6,2.58v-1.08c10.17.11,20.39-.76,30.41-2.57,3.42-.62,7.02-1.37,10.22-3.1,5.76-3.09,9.65-9.33,9.91-15.9Z" style="fill: #fff;"></path><path d="m969.18,343.97l.36,1.02c-8.87,3.13-19.91,7.02-26.06,15.66-2.98,4.19-4.83,9.55-5.51,15.92-.59,5.58-.24,11.31.09,16.86l.02.33-1.08.07-.02-.33c-.34-5.59-.68-11.37-.09-17.04.69-6.56,2.61-12.09,5.7-16.44,6.35-8.92,17.57-12.87,26.59-16.05Z" style="fill: #fff;"></path><rect x="724.27" y="300.84" width="106.76" height="1.08" transform="translate(-42.84 151.82) rotate(-10.85)" style="fill: #fff;"></rect><path d="m601.58,291.03c.07,0,.14,0,.21.02l.58.1c11.26,1.98,22.91,4.02,33.91,7.86,12.71,4.43,22.88,10.69,30.22,18.59,3.96,4.26,7.25,9.15,10.43,13.89,3.99,5.93,8.11,12.06,13.49,16.79,8.23,7.13,18.74,10.74,29.59,10.18.65-.04,1.22.47,1.25,1.13.03.66-.47,1.22-1.13,1.25-11.46.6-22.57-3.22-31.28-10.76-5.62-4.94-9.83-11.2-13.9-17.26-3.13-4.66-6.37-9.47-10.2-13.59-7.08-7.62-16.93-13.66-29.26-17.97-10.82-3.78-22.37-5.8-33.54-7.77l-.58-.1c-.65-.11-1.08-.73-.97-1.38.1-.58.6-.98,1.17-.98Z" style="fill: #fff;"></path><path d="m933.42,31.47c9.77,6.32,18.8,13.78,26.84,22.17,8.04,8.39,15.11,17.73,21.01,27.76l-.93.55c-5.86-9.96-12.87-19.23-20.86-27.56-7.99-8.33-16.95-15.74-26.65-22.01l.59-.91Z" style="fill: #fff;"></path><rect x="789.83" y="155.12" width="1.08" height="99.85" transform="translate(570.3 991.36) rotate(-88.91)" style="fill: #fff;"></rect><rect x="753.63" y="160.29" width="66.8" height="1.08" style="fill: #fff;"></rect><rect x="836.84" y="30.23" width="1.08" height="118.88" transform="translate(96.5 490.1) rotate(-34.5)" style="fill: #fff;"></rect><g><path d="m1056.86,9.91c.7,0,1.28.56,1.3,1.26.02.72-.55,1.31-1.26,1.33-40.61,1.1-75.38,8.69-103.33,22.57-17.51,8.69-32.15,19.8-43.5,33-3.9,4.53-17.6,21.27-30.44,46.54-13.44,26.45-21.46,53.12-23.83,79.26-.72,7.98-2.05,22.82-6.45,39.36-5.21,19.6-13.32,36.24-24.1,49.45-2.32,2.84-5.14,5.38-8.64,7.78-14.82,10.12-30.65,8.97-44.61,7.95-13.53-.99-25.22-1.84-33.92,6.87-4.79,4.81-7.53,11.55-8.35,20.63-1.12,12.32,1.31,29.26,7.23,50.36.19.69-.21,1.41-.9,1.6-.69.19-1.41-.21-1.6-.9-6-21.4-8.46-38.66-7.32-51.29.88-9.7,3.86-16.97,9.1-22.22,9.54-9.55,22.37-8.62,35.95-7.62,14.2,1.04,28.88,2.11,42.95-7.5,3.29-2.26,5.94-4.64,8.1-7.28,10.55-12.92,18.49-29.23,23.6-48.47,4.34-16.32,5.66-31.03,6.37-38.93,2.4-26.47,10.51-53.45,24.1-80.2,12.97-25.53,26.84-42.47,30.79-47.05,11.58-13.47,26.49-24.78,44.32-33.63,28.29-14.05,63.42-21.73,104.42-22.84.01,0,.02,0,.04,0Z" style="fill: #fff;"></path><path d="m1059.46,296.05c.21,0,.42.05.61.15.63.34.87,1.12.53,1.76-7.91,14.82-17.05,26.73-27.18,35.38-6.32,5.4-12.91,9.43-19.58,11.99-13.33,5.11-28.38,5.35-44.71.7-11.96-3.4-21.16-8.53-24.56-10.58-3.5-2.1-6.23-4.05-8.65-5.77-5.22-3.72-8.67-6.18-14.99-6.88-8-.9-13.84,1.95-27.95,8.83-3.42,1.67-7.29,3.56-11.8,5.69-11.7,5.53-17.77,8.26-24.05,10.82-13.54,5.56-27.72,9.75-42.13,12.47-.7.13-1.38-.33-1.52-1.04-.13-.7.33-1.38,1.04-1.52,14.24-2.68,28.24-6.83,41.63-12.32,6.24-2.54,12.27-5.26,23.93-10.77,4.5-2.13,8.36-4.02,11.77-5.68,14.59-7.12,20.62-10.07,29.38-9.08,6.98.78,10.85,3.53,16.2,7.34,2.38,1.69,5.07,3.61,8.48,5.66,3.31,2,12.27,7,23.93,10.31,15.78,4.49,30.28,4.27,43.07-.63,6.4-2.45,12.73-6.33,18.82-11.53,9.88-8.44,18.82-20.09,26.57-34.63.23-.44.68-.69,1.15-.69Z" style="fill: #fff;"></path></g></g></g></svg>