<?xml version="1.0" encoding="UTF-8"?>
<svg id="Layer_2" data-name="Layer 2" xmlns="http://www.w3.org/2000/svg" viewBox="0 0 307.89 186.72">
  <g id="Layer_1-2" data-name="Layer 1">
    <path d="m235.52,169.9c-16.12,6.17-33.14,10.12-50.04,13.01-17.12,2.92-34.49,4.34-51.82,3.63-1.04-.04-2.08-.09-3.12-.15-32.85-1.81-65.72-11.61-92.92-31.33-12.71-9.22-24.3-20.81-31.27-35.42-6.97-14.61-8.82-32.54-2.44-47.45,8.21-19.2,27.46-29.55,44.72-39.87C69.07,20.12,89.18,5.74,112.27,1.43c33.33-6.22,66.37,9.49,99.71,15.62,22.62,4.16,46.12,3.97,67.79,12.04,11.26,4.19,22.63,11.57,26.58,23.57,3.08,9.34,1.07,19.67-1.8,29.09-10.54,34.57-32.77,64.95-61.67,84.26" style="fill: #5f6061; opacity: .11;"/>
  </g>
</svg>