<svg xmlns="http://www.w3.org/2000/svg" data-name="Layer 2" viewBox="0 0 174.57 28.83"><g data-name="Layer 1"><path d="M10.46 10.31 14.96 0l4.06 9.85 10.74.44-8.5 7.71 3.03 10.23-9.16-5.55-9.15 6.13 2.74-10.89L0 10.86l10.46-.55zM46.65 10.31 51.16 0l4.06 9.85 10.74.44L57.45 18l3.03 10.23-9.15-5.55-9.16 6.13 2.74-10.89-8.72-7.06 10.46-.55zM82.84 10.31 87.35 0l4.06 9.85 10.74.44-8.5 7.71 3.02 10.23-9.15-5.55-9.15 6.13 2.74-10.89-8.72-7.06 10.45-.55zM119.04 10.31 123.54 0l4.07 9.85 10.73.44-8.5 7.71 3.03 10.23-9.16-5.55-9.15 6.13 2.74-10.89-8.72-7.06 10.46-.55zM155.23 10.31 159.74 0l4.06 9.85 10.74.44-8.51 7.71 3.03 10.23-9.15-5.55-9.16 6.13 2.74-10.89-8.72-7.06 10.46-.55z" style="fill:#e4a721"/></g></svg>